<svg id="sw-js-blob-svg" viewBox="0 0 100 100" xmlns="http://www.w3.org/2000/svg" width="200" height="200">
<style>
        @import url('https://fonts.googleapis.com/css2?family=Protest+Strike');
    </style>
    <defs>
        <linearGradient id="sw-gradient" x1="0" x2="1" y1="1" y2="0">
            <stop id="stop1" stop-color="rgba(248, 117, 55, 1)" offset="0%"></stop>
            <stop id="stop2" stop-color="rgba(116, 16, 247, 1)" offset="25%"></stop>
        </linearGradient>
    </defs>
    <path fill="url(#sw-gradient)" d="M25.2,-34.6C32.1,-29.6,36.7,-21.5,38.9,-13C41.1,-4.5,40.9,4.3,38,12.1C35.2,19.9,29.7,26.6,22.9,32C16.1,37.4,8.1,41.5,-0.6,42.3C-9.2,43,-18.4,40.5,-24.8,35C-31.2,29.5,-34.9,21,-37.7,12.3C-40.5,3.5,-42.6,-5.5,-41,-14.3C-39.4,-23,-34.3,-31.6,-26.9,-36.3C-19.4,-41.1,-9.7,-42,-0.3,-41.6C9.1,-41.2,18.3,-39.5,25.2,-34.6Z" width="100%" height="100%" transform="translate(50 50)" stroke-width="0" style="transition: all 0.3s ease 0s;"></path>
    <text x="50%" y="50%" text-anchor="middle" dominant-baseline="middle" fill="white" font-size="20" font-family="Protest Strike">Javascript</text>
</svg>